<?xml version="1.0" standalone="no"?>
<!DOCTYPE svg PUBLIC "-//W3C//DTD SVG 20010904//EN"
 "http://www.w3.org/TR/2001/REC-SVG-20010904/DTD/svg10.dtd">
<svg version="1.0" xmlns="http://www.w3.org/2000/svg"
 width="512.000000pt" height="512.000000pt" viewBox="0 0 512.000000 512.000000"
 preserveAspectRatio="xMidYMid meet">
<metadata>
Created by potrace 1.14, written by Peter Selinger 2001-2017
</metadata>
<g transform="translate(0.000000,512.000000) scale(0.100000,-0.100000)"
fill="#000000" stroke="none">
<path d="M1314 4749 c-11 -6 -28 -23 -37 -39 -15 -25 -17 -73 -17 -439 l0
-411 -365 0 c-397 0 -409 -1 -433 -55 -9 -20 -12 -341 -12 -1335 l0 -1310
-186 0 c-205 0 -232 -7 -254 -61 -18 -42 -6 -157 26 -259 70 -219 262 -397
494 -459 72 -18 111 -19 838 -20 698 -1 766 0 792 15 66 39 66 129 0 167 -26
15 -96 17 -769 17 -510 0 -756 3 -793 11 -166 35 -314 166 -369 326 -10 31
-19 58 -19 60 0 1 1058 3 2350 3 1293 0 2350 -2 2350 -3 0 -2 -9 -29 -19 -60
-40 -116 -135 -226 -242 -279 -116 -59 -106 -58 -916 -58 -512 0 -749 -3 -766
-11 -27 -12 -57 -58 -57 -88 0 -33 20 -67 50 -84 26 -16 94 -17 782 -17 468 1
774 5 808 11 209 39 401 187 499 386 54 109 86 283 62 341 -23 55 -50 62 -255
62 l-186 0 0 1310 c0 994 -3 1315 -12 1335 -24 54 -36 55 -433 55 l-365 0 0
410 c0 273 -4 417 -11 433 -13 29 -58 57 -93 57 -17 0 -157 -88 -408 -255
l-383 -255 -5 223 c-3 122 -9 229 -13 238 -4 8 -21 23 -36 32 -27 16 -92 17
-803 16 -498 0 -780 -4 -794 -10z m1446 -689 l0 -500 -650 0 -650 0 0 500 0
500 650 0 650 0 0 -500z m898 -205 l-3 -205 -164 110 c-90 61 -167 110 -172
110 -4 0 -9 3 -11 8 -1 4 -60 45 -131 91 -70 47 -126 88 -125 93 2 4 138 98
303 208 l300 200 3 -205 c1 -113 1 -297 0 -410z m-300 -247 c230 -153 382
-248 397 -248 37 0 70 19 88 50 13 22 17 53 17 139 l0 111 305 0 305 0 0
-1250 0 -1250 -604 0 -604 0 -5 218 c-5 240 -12 274 -80 407 -47 94 -149 209
-231 259 -96 59 -252 114 -313 110 -34 -2 -18 13 20 19 103 16 217 111 270
224 28 61 31 77 32 164 0 90 -2 99 -37 171 -45 91 -103 148 -196 191 -60 28
-76 31 -162 31 -78 0 -105 -4 -150 -24 -260 -113 -331 -440 -139 -641 54 -57
160 -119 202 -119 32 0 17 -16 -18 -18 -121 -8 -307 -107 -408 -217 -83 -90
-154 -227 -173 -335 -2 -14 -6 -36 -8 -50 -3 -14 -5 -107 -5 -207 l-1 -183
-605 0 -605 0 0 1250 0 1250 305 0 305 0 0 -111 c0 -121 12 -157 57 -178 17
-8 262 -11 794 -11 701 0 773 2 799 17 16 9 33 27 39 40 7 15 11 106 11 239 0
170 3 214 13 208 6 -4 180 -119 385 -256z m-687 -884 c56 -38 82 -85 84 -153
3 -67 -13 -108 -60 -154 -76 -74 -193 -75 -269 -1 -48 47 -64 87 -62 154 4 80
60 157 131 180 51 16 133 4 176 -26z m52 -792 c160 -57 278 -187 321 -352 9
-36 14 -117 15 -237 l2 -183 -501 0 -501 0 2 183 c2 263 29 350 149 468 70 69
146 113 235 135 72 18 208 11 278 -14z"/>
<path d="M2503 540 c-44 -36 -54 -83 -26 -130 38 -66 128 -66 166 0 10 15 17
37 17 49 0 77 -99 129 -157 81z"/>
</g>
</svg>
